<svg width="42" height="42" viewBox="0 0 42 42" fill="none" xmlns="http://www.w3.org/2000/svg">
<circle cx="21" cy="21" r="21" fill="white"/>
<path d="M21 25C22.0609 25 23.0783 24.5786 23.8284 23.8284C24.5786 23.0783 25 22.0609 25 21C25 19.9391 24.5786 18.9217 23.8284 18.1716C23.0783 17.4214 22.0609 17 21 17C19.9391 17 18.9217 17.4214 18.1716 18.1716C17.4214 18.9217 17 19.9391 17 21C17 22.0609 17.4214 23.0783 18.1716 23.8284C18.9217 24.5786 19.9391 25 21 25Z" stroke="black" stroke-width="1.5" stroke-linecap="round" stroke-linejoin="round"/>
<path d="M12 25V17C12 15.6739 12.5268 14.4021 13.4645 13.4645C14.4021 12.5268 15.6739 12 17 12H25C26.3261 12 27.5979 12.5268 28.5355 13.4645C29.4732 14.4021 30 15.6739 30 17V25C30 26.3261 29.4732 27.5979 28.5355 28.5355C27.5979 29.4732 26.3261 30 25 30H17C15.6739 30 14.4021 29.4732 13.4645 28.5355C12.5268 27.5979 12 26.3261 12 25Z" stroke="black" stroke-width="1.5"/>
<path d="M26.5 15.509L26.51 15.498" stroke="black" stroke-width="1.5" stroke-linecap="round" stroke-linejoin="round"/>
</svg>
